<svg width="142" height="28" fill="none" xmlns="http://www.w3.org/2000/svg"><path d="M141.123 17.517c-.209-1.055-1.158-1.816-2.171-1.74-1.134.086-1.987.926-2.042 2.03a2.152 2.152 0 0 0 1.823 2.296c1.012.17 2.019-.485 2.341-1.51.036-.114 0-.251.11-.342v-.565c-.061-.04-.05-.108-.061-.169zm-2.089 2.267a1.832 1.832 0 0 1-1.829-1.83 1.83 1.83 0 1 1 1.829 1.83zM46.46 13.033c-1.618-1.124-3.443-1.582-5.383-1.608-2.374-.03-4.75 0-7.124 0-.559 0-.66.1-.66.648v15.572c0 .504.127.629.627.629h6.906c.89.003 1.776-.1 2.64-.31 2.658-.658 4.643-2.137 5.687-4.724.62-1.535.736-3.143.522-4.768-.298-2.264-1.317-4.118-3.214-5.44zm-2.988 9.715c-.747.74-1.676 1.038-2.7 1.068-.742.023-1.486 0-2.229 0-.176 0-.231-.048-.231-.228.006-2.506.006-5.013 0-7.52 0-.161.047-.213.212-.21.429.012.858 0 1.287 0 .732 0 1.465-.034 2.182.162 1.556.407 2.521 1.6 2.656 3.292.105 1.315-.219 2.484-1.177 3.434v.002zM83.02 15.914c-1.85-.443-3.496 0-4.896 1.296-.209.194-.389.417-.591.637-.426-1.086-1.192-1.756-2.316-1.973-1.915-.368-3.592.13-5.04 1.457-.013-.02-.023-.026-.023-.034v-.69c0-.405-.145-.552-.544-.553h-3.388c-.402 0-.55.14-.55.548v11.122c0 .403.15.541.558.541h3.295c.506 0 .63-.121.63-.623v-6.639c0-.121-.028-.244.07-.354.347-.392.744-.72 1.27-.81 1.048-.191 1.831.191 1.815 1.457-.026 2.131 0 4.262 0 6.393 0 .464.128.589.598.589h3.264c.494 0 .607-.113.607-.605v-6.639a.529.529 0 0 1 .11-.406c.269-.309.607-.55.986-.701 1.227-.456 2.094.136 2.105 1.432v6.391c0 .38.134.53.486.531h3.484c.324 0 .486-.162.486-.485 0-2.904.016-5.807 0-8.71-.037-1.632-.93-2.814-2.416-3.172zM26.363 5.329 20.83-.307a.957.957 0 0 0-.748-.31c-.422-.03-.681.264-.953.543l-4.21 4.297c-1.39 1.418-2.78 2.836-4.173 4.252-.128.128-.162.199-.011.345 3.077 3.13 6.15 6.26 9.22 9.39.213.22.294.095.43-.045 2.823-2.882 5.645-5.762 8.468-8.64.528-.539.525-1.133-.011-1.67-.83-.837-1.652-1.686-2.48-2.526zM20.1 11.067a2.395 2.395 0 1 1 .043-4.79 2.395 2.395 0 0 1-.043 4.79zM19.4 18.798c-.212-.199-.408-.42-.612-.628-2.85-2.9-5.698-5.8-8.546-8.705-.183-.187-.276-.215-.485-.01a1270.584 1270.584 0 0 1-5.465 5.577c-1.017 1.036-2.038 2.07-3.049 3.114-.485.497-.47 1.08.008 1.58.217.227.444.442.664.667 2.462 2.516 4.926 5.033 7.392 7.55a1.033 1.033 0 0 0 .764.314 1.1 1.1 0 0 0 .764-.367c1.333-1.36 2.667-2.717 4.001-4.072 1.524-1.552 3.05-3.101 4.576-4.649.155-.157.13-.236-.012-.37zM6.577 21.276a2.385 2.385 0 1 1 2.35-2.41 2.34 2.34 0 0 1-2.35 2.413v-.003zm6.905.113a2.37 2.37 0 0 1-2.318-2.382 2.335 2.335 0 1 1 2.318 2.382zM107.2 19.154c-.06-1.667-1.107-2.937-2.733-3.26-1.99-.397-3.797 0-5.343 1.507v-.797c0-.42-.125-.547-.536-.547h-3.36c-.424 0-.572.14-.572.555v11.091c0 .421.145.566.562.566h3.328c.455 0 .578-.122.578-.57 0-2.14.016-4.281-.012-6.422a1.103 1.103 0 0 1 .509-1.022 3.39 3.39 0 0 1 .286-.19c1.458-.831 2.844-.046 2.844 1.618v5.954c0 .526.111.635.647.635h3.266c.428 0 .555-.128.555-.562v-4.762c-.001-1.266.028-2.53-.019-3.794zM57.761 15.702c-3.48-.162-6.476 2.6-6.6 6.21-.114 3.363 2.336 6.389 5.89 6.666 3.468.268 6.53-2.453 6.747-6.017.221-3.658-2.508-6.695-6.037-6.859zm1.867 6.419c-.066 1.251-1.042 2.168-2.25 2.105a2.183 2.183 0 1 1 2.25-2.105zM114.648 15.766c-3.219.387-5.565 3.112-5.565 6.447-.009.553.06 1.104.206 1.637.809 3.198 4.093 5.301 7.262 4.65a6.445 6.445 0 0 0 4.893-8.234c-.865-2.863-3.587-4.885-6.796-4.5zm.747 8.5a2.194 2.194 0 0 1-.012-4.386 2.194 2.194 0 0 1 .012 4.387zM134.507 21.104c-.876-.427-1.823-.584-2.775-.724-.63-.092-1.271-.123-1.88-.333-.162-.059-.335-.14-.347-.358a.47.47 0 0 1 .292-.444 1.81 1.81 0 0 1 .809-.19 5.145 5.145 0 0 1 3.273.97c.314.216.535.163.723-.17.382-.671.76-1.343 1.134-2.017.179-.323.124-.518-.185-.709a8.856 8.856 0 0 0-4.321-1.334c-1.307-.062-2.591.021-3.809.567-1.334.6-2.168 1.577-2.205 3.099-.04 1.61.683 2.752 2.149 3.427.921.425 1.91.593 2.901.753.607.1 1.224.162 1.804.38.238.093.476.22.458.527-.018.308-.264.385-.486.465-.429.137-.882.19-1.332.152-1.295-.07-2.448-.572-3.551-1.213-.389-.227-.565-.19-.793.196-.421.708-.84 1.418-1.257 2.13-.233.398-.196.584.196.827a10.125 10.125 0 0 0 4.778 1.457c1.296.026 2.277-.058 3.227-.343 1.888-.567 2.95-1.781 3.12-3.563.161-1.622-.513-2.862-1.923-3.552zM91.678 16.057h-3.263c-.538 0-.664.125-.664.66V27.52c0 .648.094.75.734.75h3.202c.415 0 .567-.149.569-.565V16.619c-.005-.412-.16-.562-.578-.562zM122.836 10.16a2.476 2.476 0 0 0-2.074 2.779c.153.994.896 1.718 2.006 1.907.256.044.226.13.149.3a1.649 1.649 0 0 1-.629.718.279.279 0 0 0-.111.426c.428.661.345.693 1.021.36l.084-.04c1.519-.828 2.438-2.049 2.526-3.516.008-1.965-1.359-3.173-2.972-2.934zM90.118 10.068a2.56 2.56 0 1 0 2.511 2.562 2.535 2.535 0 0 0-2.511-2.562zM20.743 25.374c-.243.027-.575-.207-.72.209-.161.44-.331.874-.519 1.363l-.426-1.124c-.183-.485-.183-.47-.709-.464-.191 0-.254.056-.251.249.01.7.015 1.399 0 2.105 0 .254.12.247.306.259.225.013.254-.088.251-.275-.011-.47 0-.94 0-1.41.231.47.438.95.62 1.44.039.098.039.233.202.24.164.006.185-.14.227-.25.19-.485.373-.961.557-1.444.042.48.055.96.04 1.441 0 .217.078.263.274.256.196-.006.314 0 .308-.254-.018-.669 0-1.336-.011-2.005-.007-.127.097-.364-.15-.336zM17.594 25.356a31.62 31.62 0 0 1-1.568 0c-.19 0-.252.052-.252.246s.05.295.26.269c.083-.011.162 0 .251 0 .178-.02.24.055.232.231-.013.27 0 .543 0 .81s.011.564 0 .845c-.013.248.162.191.291.196.13.005.29.03.282-.207-.014-.449 0-.897 0-1.347 0-.506 0-.515.517-.527.189 0 .225-.08.221-.246-.003-.165-.011-.275-.234-.27z" fill="#8F90A6"/><path d="M139.988 17.265c-.086-.353-.399-.552-.875-.554h-.691c-.144 0-.203.042-.203.196v2.105c0 .11 0 .204.162.202.162-.001.216-.035.206-.192a4.175 4.175 0 0 1 0-.5c.008-.101-.07-.255.107-.282.141-.021.285-.033.379.136.108.2.259.38.366.583.126.242.298.314.579.208l-.597-.924c.487-.238.669-.555.567-.978zm-1.042.628c-.398.034-.393-.175-.364-.382 0-.531-.055-.476.418-.486.434 0 .631.131.638.425.006.293-.201.403-.692.443z" fill="#8F90A6"/></svg>