<svg width="116" height="28" fill="none" xmlns="http://www.w3.org/2000/svg"><path d="M115.886-.254H0v28.508h115.886V-.254z" fill="#8F90A6"/><path fill-rule="evenodd" clip-rule="evenodd" d="m46.296 6.468-5.659 9.599c-.116.212-1.236 1.854-3.515 2.009-2.26.096-4.172-1.97-4.133-4.192.077-2.201 1.776-3.978 4.036-4.017 1.932.039 3.342 1.468 3.322 1.487.406.348.676.599.985 1.043L43.4 8.901c-.367-.367-.522-.54-.985-.869-1.178-1.023-2.897-1.835-5.312-1.912-2.317-.039-4.674.889-6.47 3.148-1.12 1.43-1.564 2.724-1.622 4.616.02 2.222.85 4.018 2.066 5.312 2.086 2.105 4.597 2.607 5.93 2.607 1.931-.077 3.341-.54 4.674-1.39.425-.29.87-.657 1.352-1.14h3.592v2.183h3.69V6.468h-4.018zm.367 9.676h-1.97l1.97-3.4v3.4zM53.964 21.553v-11.53h-2.897V6.525H60.8v3.496h-2.993v11.53h-3.844zM69.242 15.797h-3.94v5.756h-3.825V6.526h3.825v5.698h3.94V6.526h3.863v15.027h-3.863v-5.756zM104.973 6.526v8.344l-5.755-8.344H95.76v5.08c-.386-1.16-1.081-2.221-2.047-3.13a8.172 8.172 0 0 0-5.601-2.22c-2.221 0-4.172.734-5.717 2.202-1.545 1.448-2.376 3.36-2.376 5.427 0 1.642.425 3.09 1.236 4.346H78.32V6.526h-3.824v15.027H82.8v-1.584c1.449 1.236 3.245 1.854 5.292 1.854 2.183 0 4.269-.83 5.775-2.337.889-.87 1.507-1.912 1.893-3.052v5.119h3.844V13.19l5.852 8.363h3.38V6.526h-3.863zm-16.9 11.57c-2.163 0-4.133-1.816-4.133-4.192 0-2.202 1.835-3.96 4.172-3.96 2.202 0 4.036 1.758 4.036 3.96.02 2.472-1.815 4.191-4.075 4.191z" fill="#fff"/><path fill-rule="evenodd" clip-rule="evenodd" d="M29.03 9.77V6.448h-8.538v6.18c-.25-1.796-1.004-3.244-2.182-4.326-1.642-1.487-3.38-1.796-5.872-1.796h-5.37v15.027h5.892c2.202 0 3.689-.29 5.37-1.855 1.177-1.12 1.911-2.53 2.162-4.19v5.967h8.537V18.23h-4.77v-2.781h4.133v-3.226h-4.133V9.79h4.77V9.77zm-16.573 8.48h-1.545v-8.5h1.526c2.82 0 4.346 1.527 4.346 4.23 0 2.956-1.39 4.27-4.326 4.27z" fill="#fff"/></svg>