<svg width="100" height="28" fill="none" xmlns="http://www.w3.org/2000/svg"><path d="m64.47 22.038-4.69-6.327 4.69-6.326h-3.317l-4.714 6.326V5.171h-2.62v16.864h2.62V15.71l4.714 6.327h3.317zM37.092 5.172V10.5a5.83 5.83 0 0 0-3.426-1.115c-3.338 0-6.043 2.832-6.043 6.325 0 3.493 2.705 6.325 6.043 6.325a5.832 5.832 0 0 0 3.426-1.115v1.115h2.62V5.172h-2.62zm-3.426 14.123c-1.892 0-3.426-1.605-3.426-3.585s1.534-3.586 3.426-3.586c1.893 0 3.426 1.605 3.426 3.586 0 1.98-1.533 3.585-3.426 3.585z" fill="#8F90A6"/><path d="M69.337 9.385c-3.338 0-6.044 2.832-6.044 6.325 0 3.493 2.706 6.325 6.044 6.325 3.338 0 6.044-2.832 6.044-6.325 0-3.494-2.706-6.325-6.044-6.325zm0 9.91c-1.892 0-3.426-1.605-3.426-3.586 0-1.98 1.534-3.585 3.426-3.585 1.892 0 3.426 1.605 3.426 3.585s-1.534 3.586-3.426 3.586zM96.745 9.388V10.5a5.834 5.834 0 0 0-3.426-1.115c-3.338 0-6.044 2.832-6.044 6.325 0 3.493 2.706 6.325 6.044 6.325a5.835 5.835 0 0 0 3.426-1.115v1.115h2.62V9.388h-2.62zm-3.426 9.907c-1.892 0-3.426-1.605-3.426-3.586 0-1.98 1.534-3.585 3.426-3.585 1.892 0 3.426 1.605 3.426 3.585s-1.534 3.586-3.426 3.586zM78.909 15.62h-2.62v6.415h2.62V15.62z" fill="#8F90A6"/><path d="M76.293 15.711h2.617c0-1.979 1.534-3.583 3.425-3.584v-2.74c-3.337.001-6.042 2.832-6.042 6.324zM86.165 9.388h-2.62v12.647h2.62V9.388zM84.86 7.927c.728 0 1.317-.617 1.317-1.378 0-.76-.59-1.377-1.316-1.377-.727 0-1.316.617-1.316 1.377s.59 1.378 1.316 1.378zM49.187 18.241a3.332 3.332 0 0 1-2.422 1.054c-1.503 0-2.777-1.014-3.239-2.424h9.18c.066-.377.103-.764.103-1.161 0-3.493-2.706-6.325-6.044-6.325-2.816 0-5.183 2.016-5.854 4.745v.003a6.618 6.618 0 0 0-.19 1.577c0 3.493 2.706 6.325 6.044 6.325 2.478 0 4.606-1.561 5.539-3.794h-3.117zm-2.422-6.116c1.35 0 2.513.818 3.072 2.005h-6.144c.559-1.187 1.723-2.005 3.072-2.005zM.472-.203V28.81h7.655V26.07H3.092V2.539h17.936v23.53H13.37v-3.297h-2.62v3.298h-.003v2.741h12.901V-.203" fill="#8F90A6"/><path d="M16.64 8.275c-.452.093-1.277.366-1.277.366s-.15-.442-.63-.957c-.971-1.04-2.665-2.056-2.665-2.056s-1.693 1.016-2.664 2.056c-.481.515-.63.957-.63.957s-.826-.273-1.279-.366C6.412 8.05 5.54 8.05 5.54 8.05l.003 6.54c0 3.09 2.44 6.54 6.526 6.54 4.087 0 6.526-3.45 6.526-6.54l.004-6.54s-.873 0-1.957.225zm-5.2.803c.263-.26.628-.508.628-.508s.365.248.629.508c.263.26.45.556.45.556s-.406.214-.623.381a3.961 3.961 0 0 0-.406.367v-.002s-.279-.212-.505-.365c-.227-.152-.623-.38-.623-.38s.186-.297.45-.557zM7.98 10.992s1.256.482 2.089.969c.2.116.417.252.634.392-1.176 2.043-2.048 4.481-2.055 4.501-.666-1.08-.668-2.27-.668-2.27v-3.592zm8.174 3.592s0 3.99-4.087 3.99c-1.854 0-2.866-.822-3.42-1.72.014-.024 1.266-2.374 5.418-4.893.826-.5 2.09-.969 2.09-.969v3.592z" fill="#8F90A6"/></svg>