<svg width="68" height="20" fill="none" xmlns="http://www.w3.org/2000/svg"><path d="M61.917 0C50.228.003 47.263 6.273 46.786 10.53c-.542 4.78 2.94 9.47 11.521 9.47 3.613 0 5.974-.597 6.812-.849a.604.604 0 0 0 .27-.166.559.559 0 0 0 .14-.274l.483-2.414a.465.465 0 0 0-.018-.248.487.487 0 0 0-.145-.208.524.524 0 0 0-.496-.1 16.55 16.55 0 0 1-4.703.668c-4.102 0-7.063-2.34-6.687-6.367.363-3.899 3.13-6.87 6.938-6.87 2.289 0 3.302 1.141 3.227 2.66v.088a.465.465 0 0 0 .14.36.515.515 0 0 0 .368.152h1.555c.24 0 .447-.159.502-.379l1.09-4.668a.546.546 0 0 0-.068-.418.597.597 0 0 0-.352-.259A21.119 21.119 0 0 0 61.92.003L61.917 0zM5.645.308a.577.577 0 0 0-.348.116A.528.528 0 0 0 5.1.72l-.302 1.284a.503.503 0 0 0 .059.371.547.547 0 0 0 .304.24l.092.026c.581.217 1.257.705.972 1.984l-2.211 9.602c-.578 2.618-1.513 3.157-2.401 3.252h-.028a.573.573 0 0 0-.317.132.525.525 0 0 0-.174.285l-.285 1.23a.485.485 0 0 0 .106.428c.05.06.113.107.185.14a.56.56 0 0 0 .231.05h9.735c.237 0 .444-.159.494-.376l.335-1.44a.466.466 0 0 0-.05-.334.506.506 0 0 0-.263-.224l-.061-.026c-.495-.186-1.167-.594-.994-1.353l1.13-4.907c3.878 6.724 5.16 8.663 9.81 8.66h4.205a.523.523 0 0 0 .317-.105.477.477 0 0 0 .177-.271l.293-1.247a.491.491 0 0 0-.102-.433.568.568 0 0 0-.417-.199c-1.05-.015-1.564-.246-2.61-1.525l-5.394-6.933 7.007-5.539c.94-.7 2.088-.896 2.725-.976l.061-.005a.53.53 0 0 0 .293-.12.486.486 0 0 0 .162-.262L28.473.9a.465.465 0 0 0-.103-.41.536.536 0 0 0-.4-.182h-8.43a.574.574 0 0 0-.346.116.525.525 0 0 0-.194.295l-.284 1.22a.508.508 0 0 0 .063.384.555.555 0 0 0 .322.24c.497.182.606.636.176.97l-7.183 5.671 1.228-5.342c.084-.307.25-.588.484-.815a1.93 1.93 0 0 1 .848-.477l.07-.02a.56.56 0 0 0 .243-.148.519.519 0 0 0 .133-.243l.296-1.265a.456.456 0 0 0-.1-.405.528.528 0 0 0-.394-.18L5.645.31zm24.79 0a.577.577 0 0 0-.347.117.528.528 0 0 0-.194.296l-.3 1.282a.482.482 0 0 0 .054.354c.063.108.165.19.288.232l.055.021c.57.204 1.36.727 1.017 2.01L27.63 19.158a.459.459 0 0 0 .099.408.531.531 0 0 0 .398.18h7.752c.24 0 .447-.159.5-.379l.335-1.45a.441.441 0 0 0-.04-.307.476.476 0 0 0-.234-.214 3.645 3.645 0 0 1-.075-.034c-.492-.228-1.223-.756-.977-1.777.025-.133.753-3.29.753-3.29h6.594c.24 0 .447-.159.503-.379l.617-2.652a.461.461 0 0 0-.1-.413.533.533 0 0 0-.403-.181h-6.365l1.192-5.146 4.445-.008c1.437 0 1.876.716 1.792 1.93l-.006.064a.466.466 0 0 0 .127.381.513.513 0 0 0 .384.163h1.639c.24 0 .447-.16.497-.382L48.173.897a.465.465 0 0 0-.103-.409.536.536 0 0 0-.399-.18H30.435z" fill="#8F90A6"/></svg>