<svg width="118" height="28" fill="none" xmlns="http://www.w3.org/2000/svg"><path d="M11.347-2.035c-.414.78-6 11.304-8.407 15.826-.084.157-.077.27.004.423 2.358 4.43 7.136 13.42 7.185 13.503.05-.083 4.828-9.072 7.186-13.502.081-.153.088-.267.004-.423-1.349-2.527-2.69-5.059-4.038-7.586-.087-.161-.093-.282-.003-.445.37-.673.726-1.355 1.102-2.062.053.091 3.629 6.813 5.382 10.106.074.138.08.242.005.384a11747.15 11747.15 0 0 0-8.312 15.651c-.074.14-.149.203-.317.2a77.86 77.86 0 0 0-2.056-.001c-.127.001-.195-.04-.254-.153-2.781-5.245-5.565-10.49-8.352-15.73-.058-.11-.063-.191-.003-.305C3.26 8.608 6.043 3.365 8.83-1.877c.035-.066.118-.15.18-.151.764-.011 1.529-.007 2.336-.007z" fill="#8F90A6"/><path d="M14.516 1.175c-1.275 2.394-4.79 9.008-6.707 12.61-.082.153-.087.267-.004.422 1.35 2.528 2.69 5.06 4.039 7.586.086.162.09.282 0 .445-.37.673-.726 1.355-1.102 2.063-.05-.086-3.625-6.808-5.382-10.107-.074-.139-.08-.242-.004-.385C8.13 8.595 10.9 3.378 13.667-1.84c.075-.14.15-.202.317-.2a77.91 77.91 0 0 0 2.057.002c.127-.001.193.04.253.154 2.782 5.245 5.566 10.489 8.353 15.73.058.11.062.192.002.304-2.787 5.242-5.57 10.486-8.357 15.727-.035.066-.118.15-.18.15-.764.011-1.53.007-2.33.007.052-.103 5.641-10.638 8.402-15.827.083-.156.077-.269-.005-.422C19.82 9.354 15.043.364 14.994.281c-.01.016-.185.343-.478.894zM34.093 20.812h-2.617V9.361c0-.146-.016-.241-.05-.288-.032-.046-.114-.096-.245-.148l-.709-.278.216-1.149h6.61c1.704 0 2.93.327 3.678.98.747.654 1.12 1.708 1.12 3.16 0 1.15-.232 2.035-.697 2.655-.466.621-1.19 1.024-2.174 1.21l3.227 5.31h-2.89L36.63 15.8h-2.537v5.012zm0-6.993h2.91c.906 0 1.552-.165 1.938-.496.387-.33.581-.89.581-1.684 0-.78-.194-1.335-.58-1.664-.387-.33-1.033-.496-1.938-.496h-2.911v4.34zM54.237 7.5v2.02h-6.925v3.548h5.509v1.94h-5.51v3.785h7.082v2.022h-9.697V9.363c0-.146-.016-.24-.049-.287-.033-.047-.114-.097-.246-.149l-.708-.277.215-1.15h10.329zM56.559 9.36c0-.145-.016-.24-.05-.287-.032-.046-.114-.096-.245-.148l-.709-.278.216-1.149h2.952c.197 0 .324.024.383.07.06.047.167.175.325.387l6.787 9.252V7.5h2.42v13.312h-2.537l-7.12-9.707v9.707h-2.42V9.361h-.002zM77.981 7.5c.263.475.545 1.046.846 1.713.301.666.613 1.39.934 2.169.322.78.639 1.59.955 2.437a94.341 94.341 0 0 1 1.672 4.913c.236.766.433 1.46.59 2.08h-2.636a49.321 49.321 0 0 0-.452-1.585 95.965 95.965 0 0 1-.453-1.526h-5.823a78.333 78.333 0 0 0-.905 3.11h-2.636a43.33 43.33 0 0 1 .59-2.079 90.201 90.201 0 0 1 2.628-7.35c.321-.78.633-1.503.934-2.17.301-.666.584-1.237.846-1.713h2.91zm-1.456 2.336a67.32 67.32 0 0 0-2.283 5.924h4.565a89.283 89.283 0 0 0-2.282-5.924zM84.295 9.36c0-.145-.017-.24-.049-.287-.033-.046-.114-.096-.246-.148l-.708-.278.215-1.149h3.227c.117 0 .177.066.177.199v7.706c0 1.267.27 2.179.806 2.735.538.554 1.41.83 2.617.83 1.22 0 2.096-.276 2.627-.83.532-.555.797-1.466.797-2.735V7.498h2.617v8.103c0 .964-.115 1.79-.345 2.477-.229.687-.587 1.251-1.072 1.693-.485.442-1.112.766-1.878.971-.768.205-1.681.307-2.744.307-1.063 0-1.977-.102-2.745-.307-.767-.204-1.393-.528-1.878-.97-.485-.443-.843-1.007-1.072-1.694-.23-.687-.344-1.513-.344-2.477v-6.24h-.002zM99.404 9.36c0-.145-.016-.24-.049-.287-.033-.046-.114-.096-.246-.148l-.708-.278.215-1.149h3.227c.117 0 .177.066.177.199V18.79h6.039v2.021h-8.656V9.361h.001zM110.893 9.52h-4.29V7.498h11.195V9.52h-4.288v11.292h-2.617V9.52z" fill="#8F90A6"/></svg>